# xmcd
#
# Track frame offsets: 
#        182
#        21432
#        41482
#        58867
#        74347
#        93175
#        110787
#        126752
#        142220
#
# Disc length: 2135 seconds
#
# Revision: 2
# Processed by: cddbd v1.5.2PL0 Copyright (c) Steve Scherf et al.
# Submitted via: ExactAudioCopy v0.99pb5
#
DISCID=88085509
DTITLE=Oscar Rizo y Conjunto Barroco - El Sonero Del Barrio
DYEAR=1993
DGENRE=Salsa
TTITLE0=El Sonero Del Barrio
TTITLE1=Ese Atrevimento (Julian Rizo)
TTITLE2=Eso Que Anda (Oscar Rizo)
TTITLE3=Caballo Viejo Murio (Pablo Villanueva)
TTITLE4=Porque Te Vas (Oscaz Rizo)
TTITLE5=Me Pongo Celoso (Julian Rizo)
TTITLE6=Blanca Nieve (Julian Rizo)
TTITLE7=Negra Rumbera (Julain Rizo)
TTITLE8=Paz
EXTD=YEAR: 1993
EXTT0=
EXTT1=
EXTT2=
EXTT3=
EXTT4=
EXTT5=
EXTT6=
EXTT7=
EXTT8=
PLAYORDER=
